<?xml version="1.0" standalone="no"?><svg version="1.1" xmlns="http://www.w3.org/2000/svg" width="541.4423828125" height="264"><svg x="258.8544921875" y="27.5" width="108.1455078125" height="81"><path d="M4,22L39.57275390625,22Q49.57275390625,22,49.57275390625,32L49.57275390625,45Q49.57275390625,55,59.57275390625,55L95.1455078125,55L59.57275390625,55Q49.57275390625,55,49.57275390625,45L49.57275390625,32Q49.57275390625,22,39.57275390625,22L4,22L4,22M14,18L14,26M95.1455078125,51L85.1455078125,55L95.1455078125,59" fill="none" stroke="#9B9CA4" stroke-width="1"></path><text x="7" y="19" style="font-family: &quot;Open Sans&quot;, sans-serif; font-size: 14px; font-weight: normal; fill: transparent;">1</text><text x="84.4345703125" y="52" style="font-family: &quot;Open Sans&quot;, sans-serif; font-size: 14px; font-weight: normal; fill: transparent;">*</text></svg><svg x="0" y="0"><rect x="0" y="0" width="262.8544921875" height="33" fill="#222"></rect><text x="10" y="19.75" style="font-family: &quot;Open Sans&quot;, sans-serif; font-size: 13px; font-weight: bold; fill: rgb(255, 255, 255);">users</text></svg><svg x="0" y="33"><rect x="0" y="0" width="262.8544921875" height="33" fill="#37383F"></rect><text x="10" y="19.75" style="font-family: &quot;Open Sans&quot;, sans-serif; font-size: 13px; font-weight: bold; fill: rgb(215, 215, 217);">_id</text><text x="197.77587890625" y="19.75" style="font-family: &quot;Open Sans&quot;, sans-serif; font-size: 13px; font-weight: bold; fill: rgb(215, 215, 217);">ObjectId</text></svg><svg x="0" y="66"><rect x="0" y="0" width="262.8544921875" height="33" fill="#37383F"></rect><text x="10" y="19.75" style="font-family: &quot;Open Sans&quot;, sans-serif; font-size: 13px; fill: rgb(215, 215, 217);">username</text><text x="218.3994140625" y="19.75" style="font-family: &quot;Open Sans&quot;, sans-serif; font-size: 13px; fill: rgb(215, 215, 217);">string</text></svg><svg x="0" y="99"><rect x="0" y="0" width="262.8544921875" height="33" fill="#37383F"></rect><text x="10" y="19.75" style="font-family: &quot;Open Sans&quot;, sans-serif; font-size: 13px; fill: rgb(215, 215, 217);">passwordHash</text><text x="218.3994140625" y="19.75" style="font-family: &quot;Open Sans&quot;, sans-serif; font-size: 13px; fill: rgb(215, 215, 217);">string</text></svg><svg x="0" y="132"><rect x="0" y="0" width="262.8544921875" height="33" fill="#37383F"></rect><text x="10" y="19.75" style="font-family: &quot;Open Sans&quot;, sans-serif; font-size: 13px; fill: rgb(215, 215, 217);">email</text><text x="218.3994140625" y="19.75" style="font-family: &quot;Open Sans&quot;, sans-serif; font-size: 13px; fill: rgb(215, 215, 217);">string</text></svg><svg x="0" y="165"><rect x="0" y="0" width="262.8544921875" height="33" fill="#37383F"></rect><text x="10" y="19.75" style="font-family: &quot;Open Sans&quot;, sans-serif; font-size: 13px; fill: rgb(215, 215, 217);">registeredAt</text><text x="198.4931640625" y="19.75" style="font-family: &quot;Open Sans&quot;, sans-serif; font-size: 13px; fill: rgb(215, 215, 217);">datetime</text></svg><svg x="0" y="198"><rect x="0" y="0" width="262.8544921875" height="33" fill="#37383F"></rect><text x="10" y="19.75" style="font-family: &quot;Open Sans&quot;, sans-serif; font-size: 13px; fill: rgb(215, 215, 217);">passwordChangedAt</text><text x="198.4931640625" y="19.75" style="font-family: &quot;Open Sans&quot;, sans-serif; font-size: 13px; fill: rgb(215, 215, 217);">datetime</text></svg><svg x="0" y="231"><rect x="0" y="0" width="262.8544921875" height="33" fill="#37383F"></rect><text x="10" y="19.75" style="font-family: &quot;Open Sans&quot;, sans-serif; font-size: 13px; fill: rgb(215, 215, 217);">birthdate</text><text x="225.74365234375" y="19.75" style="font-family: &quot;Open Sans&quot;, sans-serif; font-size: 13px; fill: rgb(215, 215, 217);">date</text></svg><svg x="354" y="0"><rect x="0" y="0" width="182.4423828125" height="33" fill="#222"></rect><text x="10" y="19.75" style="font-family: &quot;Open Sans&quot;, sans-serif; font-size: 13px; font-weight: bold; fill: rgb(255, 255, 255);">reviews</text></svg><svg x="354" y="33"><rect x="0" y="0" width="182.4423828125" height="33" fill="#37383F"></rect><text x="10" y="19.75" style="font-family: &quot;Open Sans&quot;, sans-serif; font-size: 13px; font-weight: bold; fill: rgb(215, 215, 217);">_id</text><text x="117.36376953125" y="19.75" style="font-family: &quot;Open Sans&quot;, sans-serif; font-size: 13px; font-weight: bold; fill: rgb(215, 215, 217);">ObjectId</text></svg><svg x="354" y="66"><rect x="0" y="0" width="182.4423828125" height="33" fill="#37383F"></rect><text x="10" y="19.75" style="font-family: &quot;Open Sans&quot;, sans-serif; font-size: 13px; fill: rgb(215, 215, 217);">author</text><text x="121.35009765625" y="19.75" style="font-family: &quot;Open Sans&quot;, sans-serif; font-size: 13px; fill: rgb(215, 215, 217);">ObjectId</text></svg><svg x="354" y="99"><rect x="0" y="0" width="182.4423828125" height="33" fill="#37383F"></rect><text x="10" y="19.75" style="font-family: &quot;Open Sans&quot;, sans-serif; font-size: 13px; fill: rgb(215, 215, 217);">destination</text><text x="137.9873046875" y="19.75" style="font-family: &quot;Open Sans&quot;, sans-serif; font-size: 13px; fill: rgb(215, 215, 217);">string</text></svg><svg x="354" y="132"><rect x="0" y="0" width="182.4423828125" height="33" fill="#37383F"></rect><text x="10" y="19.75" style="font-family: &quot;Open Sans&quot;, sans-serif; font-size: 13px; fill: rgb(215, 215, 217);">text</text><text x="137.9873046875" y="19.75" style="font-family: &quot;Open Sans&quot;, sans-serif; font-size: 13px; fill: rgb(215, 215, 217);">string</text></svg><svg x="354" y="165"><rect x="0" y="0" width="182.4423828125" height="33" fill="#37383F"></rect><text x="10" y="19.75" style="font-family: &quot;Open Sans&quot;, sans-serif; font-size: 13px; fill: rgb(215, 215, 217);">rating</text><text x="145.109375" y="19.75" style="font-family: &quot;Open Sans&quot;, sans-serif; font-size: 13px; fill: rgb(215, 215, 217);">float</text></svg></svg>